<?xml version="1.0" encoding="UTF-8" standalone="no"?>
<!-- Created with Inkscape (http://www.inkscape.org/) -->

<svg
   xmlns:dc="http://purl.org/dc/elements/1.1/"
   xmlns:cc="http://creativecommons.org/ns#"
   xmlns:rdf="http://www.w3.org/1999/02/22-rdf-syntax-ns#"
   xmlns:svg="http://www.w3.org/2000/svg"
   xmlns="http://www.w3.org/2000/svg"
   xmlns:sodipodi="http://sodipodi.sourceforge.net/DTD/sodipodi-0.dtd"
   xmlns:inkscape="http://www.inkscape.org/namespaces/inkscape"
   id="svg2"
   version="1.1"
   inkscape:version="0.92.4 (5da689c313, 2019-01-14)"
   width="1346.6058"
   height="1704.5574"
   viewBox="0 0 1346.6058 1704.5573"
   sodipodi:docname="Legia_Warszawa.svg">
  <metadata
     id="metadata8">
    <rdf:RDF>
      <cc:Work
         rdf:about="">
        <dc:format>image/svg+xml</dc:format>
        <dc:type
           rdf:resource="http://purl.org/dc/dcmitype/StillImage" />
        <dc:title></dc:title>
      </cc:Work>
    </rdf:RDF>
  </metadata>
  <defs
     id="defs6" />
  <sodipodi:namedview
     pagecolor="#ffffff"
     bordercolor="#666666"
     borderopacity="1"
     objecttolerance="10"
     gridtolerance="10"
     guidetolerance="10"
     inkscape:pageopacity="0"
     inkscape:pageshadow="2"
     inkscape:window-width="1366"
     inkscape:window-height="705"
     id="namedview4"
     showgrid="false"
     fit-margin-top="1"
     fit-margin-left="1"
     fit-margin-right="1"
     fit-margin-bottom="1"
     inkscape:zoom="0.097336463"
     inkscape:cx="4147.963"
     inkscape:cy="-821.6959"
     inkscape:window-x="-8"
     inkscape:window-y="-8"
     inkscape:window-maximized="1"
     inkscape:current-layer="svg2" />
  <g
     id="g47"
     transform="translate(-223.67824,121.91146)">
    <path
       sodipodi:nodetypes="ssssscsssssssscsssssscssssssssscssssscssssssscssssscssssssccssssssssccccccccccccc"
       style="fill:#eb1b23"
       d="M 874.23581,1556.4842 C 811.97549,1476.1629 740.58657,1422.1004 575.81289,1330.49 478.1331,1276.1823 449.49691,1258.8219 412.60866,1231.5493 341.74139,1179.155 288.39062,1117.6758 258.5714,1054.0433 c -12.37637,-26.4105 -28.15842,-78.88991 -28.17306,-93.68261 -0.004,-4.4446 -1.49938,-9.5724 -3.3222,-11.3953 -2.15016,-2.1501 -2.8819,-22.6861 -2.08336,-58.4683 2.08122,-93.25866 13.19911,-137.99829 81.41957,-327.64128 48.73396,-135.47335 59.25806,-208.68173 42.61303,-296.4272 -9.22306,-48.62002 -34.76821,-111.3672 -68.65989,-168.65098 -6.95334,-11.75253 -11.95394,-23.16098 -11.11247,-25.35211 0.84147,-2.19113 34.64845,-44.51342 75.12661,-94.04952 40.47817,-49.5361 74.32409,-91.96128 75.21317,-94.27817 1.33465,-3.47806 84.30349,-4.21253 475.86726,-4.21253 465.84534,0 474.31874,0.10891 478.08824,6.14472 2.1105,3.37959 36.6789,46.350531 76.8186,95.49098 40.1397,49.14044 72.9812,91.08042 72.9812,93.19995 0,2.11952 -8.5714,18.68643 -19.0477,36.81535 -62.0341,107.34921 -80.4967,203.09897 -60.0082,311.21049 8.9007,46.96599 17.3182,73.49197 69.4577,218.88073 31.4047,87.57082 46.9097,149.84946 54.145,217.48312 2.9823,27.87805 0.8363,87.91745 -3.3415,93.48595 -1.3077,1.7429 -3.409,10.2993 -4.6696,19.0141 -6.1944,42.82491 -34.6593,107.33981 -65.716,148.94361 -24.1204,32.3119 -72.2385,79.3853 -109.2759,106.9034 -42.3545,31.4686 -73.8707,50.7637 -171.7475,105.148 -97.0608,53.931 -130.1221,74.1817 -170.8824,104.6686 -52.27897,39.1024 -97.33889,82.9235 -131.34527,127.7342 -6.94423,9.1506 -13.64992,16.6374 -14.90149,16.6374 -1.25157,0 -11.05232,-11.3228 -21.77943,-25.1617 z m 365.36329,-278.317 c 12.1178,-6.8754 24.6511,-12.0479 26.2822,-14.6336 2.2232,-3.5246 -100.3574,-173.5056 -405.98157,-671.41207 C 635.68513,226.84329 449.09352,-78.529223 447.99847,-81.382879 c -1.09505,-2.853653 -4.3014,-0.890904 -7.12523,-0.347085 -7.78029,1.498348 -93.08468,106.958584 -91.43753,113.042534 1.1292,4.17083 763.11309,1244.66943 789.31029,1285.10553 l 7.8138,12.061 35.5034,-18.9056 c 19.5268,-10.3981 45.418,-24.5309 57.5359,-31.4063 z m 152.7426,-101.7294 c 58.057,-46.3713 107.2585,-117.4049 125.9161,-181.78871 26.8817,-92.763 16.5173,-191.20601 -35.1228,-333.60182 -60.4767,-166.76243 -73.9146,-213.7063 -80.1737,-280.07835 -8.4882,-90.00967 13.656,-182.11915 67.834,-282.15805 7.7133,-14.24259 10.1758,-21.83813 8.2193,-25.35211 -6.3755,-11.45039 -124.761,-154.135178 -129.5284,-156.114807 -6.8142,-2.829514 -741.9177,-2.807987 -749.05777,0.02187 -4.82752,1.913359 -4.98014,3.158896 -1.2646,10.320598 11.57277,22.306589 773.20567,1261.001679 775.34847,1261.001679 1.3706,0 9.3938,-5.5126 17.8294,-12.2503 z M 1117.7143,369.18228 c -74.9895,-20.01531 -134.17495,-81.00311 -150.70266,-155.29199 -7.0167,-31.5388 -4.97301,-82.83281 4.46936,-112.174 19.61141,-60.94051 72.1941,-113.57077 133.5572,-133.678043 28.3515,-9.290117 86.0805,-11.549865 114.3499,-4.47611 122.4294,30.635153 190.8378,160.026823 146.6768,277.433493 -23.0537,61.29085 -81.918,113.7258 -144.1345,128.39178 -25.7214,6.06315 -81.14,5.95407 -104.2161,-0.20504 z m 94.7437,-25.15507 c 47.9655,-11.30647 95.3497,-48.18989 118.3331,-92.10951 37.6546,-71.95519 24.8366,-156.42451 -32.4106,-213.58169 -55.6644,-55.57691 -136.1875,-68.795993 -208.9078,-34.29537 -29.0747,13.79386 -68.4339,53.28453 -82.3613,82.63639 -30.91133,65.14531 -23.65226,133.90394 20.2634,191.93654 24.236,32.02691 67.5504,58.97437 107.7691,67.04705 20.8733,4.18969 55.7353,3.45315 77.3141,-1.63341 z M 1095.5312,165.09657 V 41.50502 h 22.1392 22.1392 l 0.8362,102.2007 0.8361,102.20071 57.0423,1.5845 57.0422,1.58451 0.9435,19.80634 0.9434,19.80634 h -80.961 -80.9611 z"
       id="path3344"
       inkscape:connector-curvature="0" />
    <path
       sodipodi:nodetypes="ssssscsssssssscsssssscssssssssssssssscsscssscsscssssssccssssssssccccccccccccc"
       style="fill:#00a352"
       d="M 874.23581,1556.4842 C 811.97549,1476.1629 740.58657,1422.1004 575.81289,1330.49 478.1331,1276.1823 449.49691,1258.8219 412.60866,1231.5493 341.74139,1179.155 288.39062,1117.6758 258.5714,1054.0433 c -12.37637,-26.4105 -28.15842,-78.88991 -28.17306,-93.68261 -0.004,-4.4446 -1.49938,-9.5724 -3.3222,-11.3953 -2.15016,-2.1501 -2.8819,-22.6861 -2.08336,-58.4683 2.08122,-93.25866 13.19911,-137.99829 81.41957,-327.64128 48.73396,-135.47335 59.25806,-208.68173 42.61303,-296.4272 -9.22306,-48.62002 -34.76821,-111.3672 -68.65989,-168.65098 -6.95334,-11.75253 -11.95394,-23.16098 -11.11247,-25.35211 0.84147,-2.19113 34.64845,-44.51342 75.12661,-94.04952 40.47817,-49.5361 74.32409,-91.96128 75.21317,-94.27817 1.33465,-3.47806 84.30349,-4.21253 475.86726,-4.21253 465.84534,0 474.31874,0.10891 478.08824,6.14472 2.1105,3.37959 36.6789,46.350531 76.8186,95.49098 40.1397,49.14044 72.9812,91.08042 72.9812,93.19995 0,2.11952 -8.5714,18.68643 -19.0477,36.81535 -62.0341,107.34921 -80.4967,203.09897 -60.0082,311.21049 8.9007,46.96599 17.3182,73.49197 69.4577,218.88073 31.4047,87.57082 46.9097,149.84946 54.145,217.48312 2.9823,27.87805 0.8363,87.91745 -3.3415,93.48595 -1.3077,1.7429 -3.409,10.2993 -4.6696,19.0141 -6.1944,42.82491 -34.6593,107.33981 -65.716,148.94361 -24.1204,32.3119 -72.2385,79.3853 -109.2759,106.9034 -42.3545,31.4686 -73.8707,50.7637 -171.7475,105.148 -97.0608,53.931 -130.1221,74.1817 -170.8824,104.6686 -52.27897,39.1024 -97.33889,82.9235 -131.34527,127.7342 -6.94423,9.1506 -13.64992,16.6374 -14.90149,16.6374 -1.25157,0 -11.05232,-11.3228 -21.77943,-25.1617 z m 336.96439,-262.5097 c 20.9155,-11.3636 43.7324,-24.737 50.7042,-29.7186 6.9719,-4.9816 39.7712,-26.9547 72.8874,-48.8291 85.0655,-56.1888 129.1924,-101.6088 161.8075,-166.5492 51.9542,-103.44721 47.9617,-218.45014 -13.4643,-387.83033 -60.4767,-166.76243 -73.9146,-213.7063 -80.1737,-280.07835 -8.4882,-90.00967 13.656,-182.11915 67.834,-282.15805 7.7133,-14.24259 10.1758,-21.83813 8.2193,-25.35211 -7.5141,-13.49531 -125.1881,-154.27662 -130.7091,-156.376057 -5.8079,-2.20853 -644.89467,-0.669644 -831.11937,2.001289 l -79.22536,1.136295 -43.83165,53.14772 C 366.98608,6.28009 349.54082,25.89593 350.39886,29.06521 351.52444,33.22268 1112.4206,1275.7766 1138.6492,1316.2719 l 7.7172,11.9149 13.4028,-6.7756 c 7.3716,-3.7266 30.5155,-16.0731 51.431,-27.4367 z m -93.4859,-924.79222 c -74.9895,-20.01531 -134.17495,-81.00311 -150.70266,-155.29199 -7.0167,-31.5388 -4.97301,-82.83281 4.46936,-112.174 19.61141,-60.94051 72.1941,-113.57077 133.5572,-133.678043 28.3515,-9.290117 86.0805,-11.549865 114.3499,-4.47611 122.4294,30.635153 190.8378,160.026823 146.6768,277.433493 -23.0537,61.29085 -81.918,113.7258 -144.1345,128.39178 -25.7214,6.06315 -81.14,5.95407 -104.2161,-0.20504 z m 94.7437,-25.15507 c 47.9655,-11.30647 95.3497,-48.18989 118.3331,-92.10951 37.6546,-71.95519 24.8366,-156.42451 -32.4106,-213.58169 -55.6644,-55.57691 -136.1875,-68.795993 -208.9078,-34.29537 -29.0747,13.79386 -68.4339,53.28453 -82.3613,82.63639 -30.91133,65.14531 -23.65226,133.90394 20.2634,191.93654 24.236,32.02691 67.5504,58.97437 107.7691,67.04705 20.8733,4.18969 55.7353,3.45315 77.3141,-1.63341 z M 1095.5312,165.09657 V 41.50502 h 22.1392 22.1392 l 0.8362,102.2007 0.8361,102.20071 57.0423,1.5845 57.0422,1.58451 0.9435,19.80634 0.9434,19.80634 h -80.961 -80.9611 z"
       id="path3342"
       inkscape:connector-curvature="0" />
    <path
       sodipodi:nodetypes="ssssscsssssssscsssssscsssssssssssssssscsscsssssssssssssscssssssccssssssssccccccccccccc"
       style="fill:#000000"
       d="M 874.23581,1556.4842 C 811.97549,1476.1629 740.58657,1422.1004 575.81289,1330.49 478.1331,1276.1823 449.49691,1258.8219 412.60866,1231.5493 341.74139,1179.155 288.39062,1117.6758 258.5714,1054.0433 c -12.37637,-26.4105 -28.15842,-78.88991 -28.17306,-93.68261 -0.004,-4.4446 -1.49938,-9.5724 -3.3222,-11.3953 -2.15016,-2.1501 -2.8819,-22.6861 -2.08336,-58.4683 2.08122,-93.25866 13.19911,-137.99829 81.41957,-327.64128 48.73396,-135.47335 59.25806,-208.68173 42.61303,-296.4272 -9.22306,-48.62002 -34.76821,-111.3672 -68.65989,-168.65098 -6.95334,-11.75253 -11.95394,-23.16098 -11.11247,-25.35211 0.84147,-2.19113 34.64845,-44.51342 75.12661,-94.04952 40.47817,-49.5361 74.32409,-91.96128 75.21317,-94.27817 1.33465,-3.47806 84.30349,-4.21253 475.86726,-4.21253 465.84534,0 473.67664,-3.1016 477.44614,2.9342 2.1105,3.3796 37.321,49.561051 77.4607,98.7015 40.1397,49.14044 72.9812,91.08042 72.9812,93.19995 0,2.11952 -8.5714,18.68643 -19.0477,36.81535 -62.0341,107.34921 -80.4967,203.09897 -60.0082,311.21049 8.9007,46.96599 17.3182,73.49197 69.4577,218.88073 31.4047,87.57082 46.9097,149.84946 54.145,217.48312 2.9823,27.87805 0.8363,87.91745 -3.3415,93.48595 -1.3077,1.7429 -3.409,10.2993 -4.6696,19.0141 -6.1944,42.82491 -34.6593,107.33981 -65.716,148.94361 -24.1204,32.3119 -72.2385,79.3853 -109.2759,106.9034 -42.3545,31.4686 -73.8707,50.7637 -171.7475,105.148 -97.0608,53.931 -130.1221,74.1817 -170.8824,104.6686 -52.27897,39.1024 -97.33889,82.9235 -131.34527,127.7342 -6.94423,9.1506 -13.64992,16.6374 -14.90149,16.6374 -1.25157,0 -11.05232,-11.3228 -21.77943,-25.1617 z m 65.78546,-80.3867 c 61.64883,-60.4421 138.64663,-116.1782 203.04513,-146.9776 39.6993,-18.9866 102.9418,-53.5056 118.838,-64.864 6.9719,-4.9816 39.7712,-26.9547 72.8874,-48.8291 85.0655,-56.1888 129.1924,-101.6088 161.8075,-166.5492 51.9542,-103.44721 47.9617,-218.45014 -13.4643,-387.83033 -60.4767,-166.76243 -73.9146,-213.7063 -80.1737,-280.07835 -8.4882,-90.00967 13.656,-182.11915 67.834,-282.15805 7.7133,-14.24259 10.1758,-21.83813 8.2193,-25.35211 -7.5141,-13.49531 -126.4723,-153.955569 -131.9933,-156.055006 -5.827,-2.215794 -645.42511,-0.982992 -829.83517,1.694039 l -79.22536,1.150096 -40.5499,48.744768 C 375.10843,-4.19773 354.58602,22.01558 351.80552,27.24446 c -2.7805,5.22887 -11.98463,17.83157 -20.45362,28.00599 -8.46899,10.17442 -15.39816,19.97902 -15.39816,21.78801 0,1.80899 9.92204,23.43165 22.04899,48.05035 42.34942,85.97279 55.15551,136.82098 55.1694,219.05705 0.0139,83.23907 -9.88561,122.47625 -78.75596,312.14789 -36.81617,101.39317 -49.88408,162.16291 -50.08761,232.92254 -0.30445,105.8432 31.80516,181.94091 109.06515,258.47751 48.51926,48.0649 97.50562,81.1904 221.1869,149.5707 89.2859,49.3639 139.5553,80.2116 178.75965,109.6954 35.82827,26.9448 78.56626,65.2326 102.13438,91.4993 9.77428,10.8935 18.61862,19.8064 19.65406,19.8064 1.03545,0 21.23712,-18.9757 44.89257,-42.1681 z M 1117.7143,369.18228 c -74.9895,-20.01531 -134.17495,-81.00311 -150.70266,-155.29199 -7.0167,-31.5388 -4.97301,-82.83281 4.46936,-112.174 19.61141,-60.94051 72.1941,-113.57077 133.5572,-133.678043 28.3515,-9.290117 86.0805,-11.549865 114.3499,-4.47611 122.4294,30.635153 190.8378,160.026823 146.6768,277.433493 -23.0537,61.29085 -81.918,113.7258 -144.1345,128.39178 -25.7214,6.06315 -81.14,5.95407 -104.2161,-0.20504 z m 94.7437,-25.15507 c 47.9655,-11.30647 95.3497,-48.18989 118.3331,-92.10951 37.6546,-71.95519 24.8366,-156.42451 -32.4106,-213.58169 -55.6644,-55.57691 -136.1875,-68.795993 -208.9078,-34.29537 -29.0747,13.79386 -68.4339,53.28453 -82.3613,82.63639 -30.91133,65.14531 -23.65226,133.90394 20.2634,191.93654 24.236,32.02691 67.5504,58.97437 107.7691,67.04705 20.8733,4.18969 55.7353,3.45315 77.3141,-1.63341 z M 1095.5312,165.09657 V 41.50502 h 22.1392 22.1392 l 0.8362,102.2007 0.8361,102.20071 57.0423,1.5845 57.0422,1.58451 0.9435,19.80634 0.9434,19.80634 h -80.961 -80.9611 z"
       id="path3340"
       inkscape:connector-curvature="0" />
    <path
       inkscape:connector-curvature="0"
       id="path29"
       d="M 1135.7828,1308.795 C 1112.6956,1272.9472 828.14262,809.07119 507.42503,284.45127 372.11998,63.123445 353.28951,31.974247 353.28951,29.4817 c 0,-6.804031 84.49048,-108.460529 90.14556,-108.460529 2.96587,0 19.80179,25.29505 52.56674,78.97862480999 C 522.51367,43.43804 655.73793,261.01452 792.05573,483.50309 c 382.81547,624.80521 470.48367,769.55831 470.43077,776.75031 -0.023,2.9988 -37.5114,25.0701 -85.3082,50.2238 l -30.1077,15.8446 z"
       style="fill:#fdfcfc;fill-opacity:1;stroke:none;stroke-width:2.56841063;stroke-opacity:1" />
    <path
       inkscape:connector-curvature="0"
       id="path31"
       d="M 1340.0584,1131.3847 C 1243.7802,976.74535 762.61405,194.27864 645.63753,2.1257129 619.04557,-41.555901 597.28851,-78.255919 597.28851,-79.429882 c 0,-1.173963 168.97841,-1.84168 375.50756,-1.483816 l 375.50763,0.650663 21.531,24.399901 c 29.3614,33.273666 101.1342,119.59105 105.7091,127.130966 3.4857,5.744774 2.4321,8.786994 -17.0731,49.295388 -41.6023,86.39938 -54.6258,135.10197 -56.5313,211.40364 -2.2022,88.18345 2.7558,108.34026 84.9704,345.45122 31.6642,91.32131 43.4355,149.88125 43.3676,215.74649 -0.064,62.05298 -8.8627,100.40534 -35.3545,154.10463 -13.485,27.3344 -40.5385,66.5943 -59.9087,86.9394 -11.4361,12.0117 -56.9842,50.4706 -59.7739,50.4706 -1.1004,0 -16.9323,-23.9826 -35.1819,-53.2945 z m -113.279,-762.16998 c 66.3661,-16.93283 126.8303,-77.37313 146.6085,-146.55065 8.3076,-29.05743 8.3559,-80.93131 0.1022,-109.77855 -21.6508,-75.670231 -76.5378,-129.738278 -152.0399,-149.771154 -17.1049,-4.538417 -72.6475,-5.064433 -95.5841,-0.905226 -60.0389,10.887128 -114.9469,54.105832 -145.34936,114.406251 -13.86071,27.491359 -17.01318,43.999779 -17.12716,89.688989 -0.11687,46.84016 3.58295,63.51453 21.95636,98.95354 28.84496,55.63686 88.31926,99.12287 147.45626,107.81617 22.0131,3.236 74.6382,1.07483 93.9772,-3.85937 z"
       style="fill:#fdfcfc;fill-opacity:1;stroke:none;stroke-width:2.56841063;stroke-opacity:1" />
    <path
       inkscape:connector-curvature="0"
       id="path33"
       d="m 1132.8021,343.772 c -8.4757,-1.95428 -21.914,-6.43919 -29.8627,-9.96646 -99.4728,-44.14132 -140.06394,-152.3825 -93.0725,-248.189147 12.65,-25.790928 50.6368,-64.315212 76.7038,-77.7890331 72.7007,-37.5784169 154.1638,-24.5616409 211.9828,33.8721791 45.5962,46.08112 62.5531,111.996451 44.7001,173.759421 -9.5023,32.87337 -21.3745,52.54772 -47.0986,78.0505 -23.4092,23.20775 -48.8097,38.76387 -77.3111,47.34785 -19.4221,5.84948 -66.41,7.4412 -86.0418,2.91469 z M 1257.37,269.0408 v -21.83149 l -25.042,-0.0103 c -13.7731,-0.005 -39.7651,-0.7613 -57.7601,-1.67907 l -32.7181,-1.66885 -0.6712,-101.69943 -0.6713,-101.699428 -22.4735,-0.742098 -22.4736,-0.742099 V 164.92018 290.87229 h 80.9049 80.9049 z"
       style="fill:#fdfcfc;fill-opacity:1;stroke:none;stroke-width:2.56841063;stroke-opacity:1" />
    <path
       inkscape:connector-curvature="0"
       id="path35"
       d="m 1132.7042,343.77097 c -51.2407,-11.74347 -98.3244,-48.73449 -122.6776,-96.38099 -15.77723,-30.86774 -20.86473,-54.86375 -19.04428,-89.82535 2.3313,-44.77234 15.57438,-76.2112 46.02158,-109.254318 34.8682,-37.840997 68.0793,-55.1467064 116.3455,-60.62543 71.4768,-8.113374 144.8277,32.626886 177.1132,98.371424 16.7768,34.163674 20.2219,50.354574 18.6966,87.869284 -2.0751,51.03632 -16.284,83.06775 -53.0465,119.58387 -23.3691,23.2125 -48.7293,38.75238 -77.2688,47.34785 -19.4255,5.85048 -66.3933,7.43917 -86.1397,2.91366 z M 1257.37,269.0408 v -21.83149 l -25.042,-0.0103 c -13.7731,-0.005 -39.7651,-0.7613 -57.7601,-1.67907 l -32.7181,-1.66885 -0.6712,-101.69943 -0.6713,-101.699428 -22.4735,-0.742098 -22.4736,-0.742099 V 164.92018 290.87229 h 80.9049 80.9049 z"
       style="fill:#fdfcfc;fill-opacity:1;stroke:none;stroke-width:2.56841063;stroke-opacity:1" />
    <path
       inkscape:connector-curvature="0"
       id="path37"
       d="m 1131.854,343.59755 c -50.5597,-11.52117 -98.6359,-49.59565 -122.2916,-96.85022 -15.39754,-30.75815 -20.37758,-54.66184 -18.58008,-89.1827 2.36013,-45.32607 16.18478,-77.662567 47.37958,-110.822795 23.5687,-25.053697 47.658,-41.4361365 73.5246,-50.0020405 68.5087,-22.6871285 135.8255,-6.4784122 186.9126,45.0053385 15.5633,15.684159 22.037,24.721602 31.4479,43.901979 15.3023,31.187688 19.5858,48.769558 19.5858,80.390698 0,31.2614 -4.8049,52.23789 -18.5811,81.11839 -8.6155,18.0616 -14.3818,25.75001 -33.7877,45.05007 -24.7783,24.64324 -49.3094,39.82329 -78.6201,48.65104 -19.8286,5.97192 -66.3736,7.43812 -86.9899,2.74024 z M 1257.37,269.0408 v -21.83149 l -28.8946,-0.0128 c -15.892,-0.008 -41.8972,-0.76089 -57.7892,-1.67663 l -28.8946,-1.66379 v -100.785 c 0,-89.533404 -0.4536,-100.959045 -4.0627,-102.343996 -2.2345,-0.857448 -12.6366,-1.558997 -23.1157,-1.558997 h -19.053 V 165.02018 290.87229 h 80.9049 80.9049 z"
       style="fill:#fdfcfc;fill-opacity:1;stroke:none;stroke-width:2.56841063;stroke-opacity:1" />
  </g>
</svg>
